<mxfile host="Electron" agent="Mozilla/5.0 (Macintosh; Intel Mac OS X 10_15_7) AppleWebKit/537.36 (KHTML, like Gecko) draw.io/28.1.2 Chrome/138.0.7204.243 Electron/37.4.0 Safari/537.36" version="28.1.2">
  <diagram name="第 1 页" id="CLoskNNBtoroNcG-yTlC">
    <mxGraphModel dx="1284" dy="1098" grid="0" gridSize="10" guides="1" tooltips="1" connect="1" arrows="1" fold="1" page="1" pageScale="1" pageWidth="4000" pageHeight="5000" background="none" math="0" shadow="0">
      <root>
        <mxCell id="0" />
        <mxCell id="1" parent="0" />
        <mxCell id="Iygiho4SqeM-Lswng-sU-260" value="" style="rounded=1;whiteSpace=wrap;html=1;fillColor=#fff2cc;strokeColor=#d6b656;" vertex="1" parent="1">
          <mxGeometry x="630" y="1650" width="556" height="449" as="geometry" />
        </mxCell>
        <mxCell id="Iygiho4SqeM-Lswng-sU-248" value="" style="rounded=1;whiteSpace=wrap;html=1;fillColor=#fff2cc;strokeColor=#d6b656;" vertex="1" parent="1">
          <mxGeometry x="440" y="1360" width="917.5" height="210" as="geometry" />
        </mxCell>
        <mxCell id="Iygiho4SqeM-Lswng-sU-105" value="" style="rounded=1;whiteSpace=wrap;html=1;fillColor=#fff2cc;strokeColor=#d6b656;" vertex="1" parent="1">
          <mxGeometry x="100" y="500" width="640" height="200" as="geometry" />
        </mxCell>
        <mxCell id="Iygiho4SqeM-Lswng-sU-34" value="" style="rounded=1;whiteSpace=wrap;html=1;fillColor=#fff2cc;strokeColor=#d6b656;" vertex="1" parent="1">
          <mxGeometry x="370" y="120" width="160" height="250" as="geometry" />
        </mxCell>
        <mxCell id="Iygiho4SqeM-Lswng-sU-1" value="" style="rounded=1;whiteSpace=wrap;html=1;fillColor=#fff2cc;strokeColor=#d6b656;" vertex="1" parent="1">
          <mxGeometry x="160" y="120" width="160" height="250" as="geometry" />
        </mxCell>
        <mxCell id="Iygiho4SqeM-Lswng-sU-3" value="" style="shape=actor;whiteSpace=wrap;html=1;fillColor=#fff2cc;strokeColor=#d6b656;" vertex="1" parent="1">
          <mxGeometry x="30" y="173.25" width="80" height="116.5" as="geometry" />
        </mxCell>
        <mxCell id="Iygiho4SqeM-Lswng-sU-68" style="edgeStyle=orthogonalEdgeStyle;rounded=0;orthogonalLoop=1;jettySize=auto;html=1;exitX=0;exitY=0.5;exitDx=0;exitDy=0;entryX=0.5;entryY=0;entryDx=0;entryDy=0;" edge="1" parent="1" source="Iygiho4SqeM-Lswng-sU-6" target="Iygiho4SqeM-Lswng-sU-3">
          <mxGeometry relative="1" as="geometry">
            <Array as="points">
              <mxPoint x="215" y="153" />
              <mxPoint x="70" y="153" />
            </Array>
          </mxGeometry>
        </mxCell>
        <mxCell id="Iygiho4SqeM-Lswng-sU-6" value="cache" style="shape=datastore;whiteSpace=wrap;html=1;fillColor=#dae8fc;strokeColor=#6c8ebf;" vertex="1" parent="1">
          <mxGeometry x="215" y="130" width="50" height="53.5" as="geometry" />
        </mxCell>
        <mxCell id="Iygiho4SqeM-Lswng-sU-62" style="edgeStyle=orthogonalEdgeStyle;rounded=0;orthogonalLoop=1;jettySize=auto;html=1;exitX=0.5;exitY=1;exitDx=0;exitDy=0;entryX=0.5;entryY=0;entryDx=0;entryDy=0;curved=1;" edge="1" parent="1" source="Iygiho4SqeM-Lswng-sU-8" target="Iygiho4SqeM-Lswng-sU-11">
          <mxGeometry relative="1" as="geometry" />
        </mxCell>
        <mxCell id="Iygiho4SqeM-Lswng-sU-65" style="edgeStyle=orthogonalEdgeStyle;rounded=0;orthogonalLoop=1;jettySize=auto;html=1;exitX=0.5;exitY=0;exitDx=0;exitDy=0;entryX=0.5;entryY=1;entryDx=0;entryDy=0;" edge="1" parent="1" source="Iygiho4SqeM-Lswng-sU-8" target="Iygiho4SqeM-Lswng-sU-6">
          <mxGeometry relative="1" as="geometry">
            <Array as="points">
              <mxPoint x="280" y="200" />
              <mxPoint x="240" y="200" />
            </Array>
          </mxGeometry>
        </mxCell>
        <mxCell id="Iygiho4SqeM-Lswng-sU-8" value="分析器" style="rounded=0;whiteSpace=wrap;html=1;fillColor=#e1d5e7;strokeColor=#9673a6;" vertex="1" parent="1">
          <mxGeometry x="250" y="216.5" width="60" height="30" as="geometry" />
        </mxCell>
        <mxCell id="Iygiho4SqeM-Lswng-sU-63" style="edgeStyle=orthogonalEdgeStyle;rounded=0;orthogonalLoop=1;jettySize=auto;html=1;exitX=1;exitY=0.5;exitDx=0;exitDy=0;entryX=0;entryY=0.5;entryDx=0;entryDy=0;" edge="1" parent="1" source="Iygiho4SqeM-Lswng-sU-9" target="Iygiho4SqeM-Lswng-sU-8">
          <mxGeometry relative="1" as="geometry" />
        </mxCell>
        <mxCell id="Iygiho4SqeM-Lswng-sU-64" style="edgeStyle=orthogonalEdgeStyle;rounded=0;orthogonalLoop=1;jettySize=auto;html=1;exitX=0.5;exitY=0;exitDx=0;exitDy=0;entryX=0.5;entryY=1;entryDx=0;entryDy=0;" edge="1" parent="1" source="Iygiho4SqeM-Lswng-sU-9" target="Iygiho4SqeM-Lswng-sU-6">
          <mxGeometry relative="1" as="geometry">
            <Array as="points">
              <mxPoint x="200" y="200" />
              <mxPoint x="240" y="200" />
            </Array>
          </mxGeometry>
        </mxCell>
        <mxCell id="Iygiho4SqeM-Lswng-sU-9" value="连接器" style="rounded=0;whiteSpace=wrap;html=1;fillColor=#d5e8d4;strokeColor=#82b366;" vertex="1" parent="1">
          <mxGeometry x="170" y="216.5" width="60" height="30" as="geometry" />
        </mxCell>
        <mxCell id="Iygiho4SqeM-Lswng-sU-14" value="" style="edgeStyle=orthogonalEdgeStyle;rounded=0;orthogonalLoop=1;jettySize=auto;html=1;" edge="1" parent="1" source="Iygiho4SqeM-Lswng-sU-11" target="Iygiho4SqeM-Lswng-sU-12">
          <mxGeometry relative="1" as="geometry" />
        </mxCell>
        <mxCell id="Iygiho4SqeM-Lswng-sU-11" value="优化器" style="rounded=0;whiteSpace=wrap;html=1;fillColor=#ffe6cc;strokeColor=#d79b00;" vertex="1" parent="1">
          <mxGeometry x="170" y="299.5" width="60" height="30" as="geometry" />
        </mxCell>
        <mxCell id="Iygiho4SqeM-Lswng-sU-12" value="执行器" style="rounded=0;whiteSpace=wrap;html=1;fillColor=#f8cecc;strokeColor=#b85450;" vertex="1" parent="1">
          <mxGeometry x="250" y="299.5" width="60" height="30" as="geometry" />
        </mxCell>
        <mxCell id="Iygiho4SqeM-Lswng-sU-26" value="存储引擎" style="shape=cylinder3;whiteSpace=wrap;html=1;boundedLbl=1;backgroundOutline=1;size=15;fillColor=#f5f5f5;strokeColor=#666666;fontColor=#333333;" vertex="1" parent="1">
          <mxGeometry x="410" y="126" width="80" height="65" as="geometry" />
        </mxCell>
        <mxCell id="Iygiho4SqeM-Lswng-sU-32" value="存储引擎" style="shape=cylinder3;whiteSpace=wrap;html=1;boundedLbl=1;backgroundOutline=1;size=15;fillColor=#f5f5f5;strokeColor=#666666;fontColor=#333333;" vertex="1" parent="1">
          <mxGeometry x="410" y="199" width="80" height="65" as="geometry" />
        </mxCell>
        <mxCell id="Iygiho4SqeM-Lswng-sU-33" value="存储引擎" style="shape=cylinder3;whiteSpace=wrap;html=1;boundedLbl=1;backgroundOutline=1;size=15;fillColor=#f5f5f5;strokeColor=#666666;fontColor=#333333;" vertex="1" parent="1">
          <mxGeometry x="410" y="273" width="80" height="65" as="geometry" />
        </mxCell>
        <mxCell id="Iygiho4SqeM-Lswng-sU-38" value="&lt;span style=&quot;font-size: 18px;&quot;&gt;Engine&lt;/span&gt;" style="text;html=1;align=center;verticalAlign=middle;whiteSpace=wrap;rounded=0;" vertex="1" parent="1">
          <mxGeometry x="420" y="340" width="60" height="30" as="geometry" />
        </mxCell>
        <mxCell id="Iygiho4SqeM-Lswng-sU-42" value="&lt;span style=&quot;font-size: 18px;&quot;&gt;Server&lt;/span&gt;" style="text;html=1;align=center;verticalAlign=middle;whiteSpace=wrap;rounded=0;" vertex="1" parent="1">
          <mxGeometry x="210" y="340" width="60" height="30" as="geometry" />
        </mxCell>
        <mxCell id="Iygiho4SqeM-Lswng-sU-48" value="" style="rounded=1;whiteSpace=wrap;html=1;fillColor=#fff2cc;strokeColor=#d6b656;" vertex="1" parent="1">
          <mxGeometry x="580" y="120" width="160" height="250" as="geometry" />
        </mxCell>
        <mxCell id="Iygiho4SqeM-Lswng-sU-50" value="&lt;span style=&quot;font-size: 18px;&quot;&gt;File&lt;/span&gt;" style="text;html=1;align=center;verticalAlign=middle;whiteSpace=wrap;rounded=0;" vertex="1" parent="1">
          <mxGeometry x="630" y="338" width="60" height="30" as="geometry" />
        </mxCell>
        <mxCell id="Iygiho4SqeM-Lswng-sU-51" value="data" style="shape=datastore;whiteSpace=wrap;html=1;fillColor=#dae8fc;strokeColor=#6c8ebf;" vertex="1" parent="1">
          <mxGeometry x="630" y="125" width="60" height="60" as="geometry" />
        </mxCell>
        <mxCell id="Iygiho4SqeM-Lswng-sU-52" value="index" style="shape=datastore;whiteSpace=wrap;html=1;fillColor=#dae8fc;strokeColor=#6c8ebf;" vertex="1" parent="1">
          <mxGeometry x="630" y="201.5" width="60" height="60" as="geometry" />
        </mxCell>
        <mxCell id="Iygiho4SqeM-Lswng-sU-53" value="log" style="shape=datastore;whiteSpace=wrap;html=1;fillColor=#dae8fc;strokeColor=#6c8ebf;" vertex="1" parent="1">
          <mxGeometry x="630" y="275.5" width="60" height="60" as="geometry" />
        </mxCell>
        <mxCell id="Iygiho4SqeM-Lswng-sU-59" value="" style="shape=singleArrow;whiteSpace=wrap;html=1;" vertex="1" parent="1">
          <mxGeometry x="320" y="232.25" width="50" height="25.5" as="geometry" />
        </mxCell>
        <mxCell id="Iygiho4SqeM-Lswng-sU-60" value="" style="shape=singleArrow;whiteSpace=wrap;html=1;" vertex="1" parent="1">
          <mxGeometry x="530" y="232.25" width="50" height="25.5" as="geometry" />
        </mxCell>
        <mxCell id="Iygiho4SqeM-Lswng-sU-61" value="" style="shape=singleArrow;whiteSpace=wrap;html=1;" vertex="1" parent="1">
          <mxGeometry x="110" y="232.25" width="50" height="25.5" as="geometry" />
        </mxCell>
        <mxCell id="Iygiho4SqeM-Lswng-sU-67" value="&lt;span style=&quot;font-size: 18px;&quot;&gt;Client&lt;/span&gt;" style="text;html=1;align=center;verticalAlign=middle;whiteSpace=wrap;rounded=0;" vertex="1" parent="1">
          <mxGeometry x="40" y="246.5" width="60" height="30" as="geometry" />
        </mxCell>
        <mxCell id="Iygiho4SqeM-Lswng-sU-96" value="" style="edgeStyle=orthogonalEdgeStyle;rounded=0;orthogonalLoop=1;jettySize=auto;html=1;" edge="1" parent="1" source="Iygiho4SqeM-Lswng-sU-78" target="Iygiho4SqeM-Lswng-sU-86">
          <mxGeometry relative="1" as="geometry" />
        </mxCell>
        <mxCell id="Iygiho4SqeM-Lswng-sU-78" value="A=20" style="rounded=1;whiteSpace=wrap;html=1;fillColor=#d5e8d4;strokeColor=#82b366;" vertex="1" parent="1">
          <mxGeometry x="200" y="550" width="50" height="50" as="geometry" />
        </mxCell>
        <mxCell id="Iygiho4SqeM-Lswng-sU-97" value="" style="edgeStyle=orthogonalEdgeStyle;rounded=0;orthogonalLoop=1;jettySize=auto;html=1;" edge="1" parent="1" source="Iygiho4SqeM-Lswng-sU-86" target="Iygiho4SqeM-Lswng-sU-87">
          <mxGeometry relative="1" as="geometry" />
        </mxCell>
        <mxCell id="Iygiho4SqeM-Lswng-sU-86" value="A-1" style="rhombus;whiteSpace=wrap;html=1;fillColor=#ffe6cc;strokeColor=#d79b00;" vertex="1" parent="1">
          <mxGeometry x="280" y="555" width="80" height="40" as="geometry" />
        </mxCell>
        <mxCell id="Iygiho4SqeM-Lswng-sU-99" value="" style="edgeStyle=orthogonalEdgeStyle;rounded=0;orthogonalLoop=1;jettySize=auto;html=1;" edge="1" parent="1" source="Iygiho4SqeM-Lswng-sU-87" target="Iygiho4SqeM-Lswng-sU-98">
          <mxGeometry relative="1" as="geometry" />
        </mxCell>
        <mxCell id="Iygiho4SqeM-Lswng-sU-87" value="A=19" style="rounded=1;whiteSpace=wrap;html=1;fillColor=#d5e8d4;strokeColor=#82b366;" vertex="1" parent="1">
          <mxGeometry x="390" y="550" width="50" height="50" as="geometry" />
        </mxCell>
        <mxCell id="Iygiho4SqeM-Lswng-sU-95" style="edgeStyle=orthogonalEdgeStyle;rounded=0;orthogonalLoop=1;jettySize=auto;html=1;exitX=1;exitY=0.5;exitDx=0;exitDy=0;entryX=0;entryY=0.5;entryDx=0;entryDy=0;" edge="1" parent="1" source="Iygiho4SqeM-Lswng-sU-94" target="Iygiho4SqeM-Lswng-sU-78">
          <mxGeometry relative="1" as="geometry" />
        </mxCell>
        <mxCell id="Iygiho4SqeM-Lswng-sU-94" value="事务1" style="ellipse;whiteSpace=wrap;html=1;aspect=fixed;fillColor=#f8cecc;strokeColor=#b85450;" vertex="1" parent="1">
          <mxGeometry x="110" y="550" width="50" height="50" as="geometry" />
        </mxCell>
        <mxCell id="Iygiho4SqeM-Lswng-sU-107" value="" style="edgeStyle=orthogonalEdgeStyle;rounded=0;orthogonalLoop=1;jettySize=auto;html=1;" edge="1" parent="1" source="Iygiho4SqeM-Lswng-sU-98" target="Iygiho4SqeM-Lswng-sU-106">
          <mxGeometry relative="1" as="geometry" />
        </mxCell>
        <mxCell id="Iygiho4SqeM-Lswng-sU-98" value="rollback" style="rhombus;whiteSpace=wrap;html=1;fillColor=#ffe6cc;strokeColor=#d79b00;" vertex="1" parent="1">
          <mxGeometry x="470" y="555" width="80" height="40" as="geometry" />
        </mxCell>
        <mxCell id="Iygiho4SqeM-Lswng-sU-104" style="edgeStyle=orthogonalEdgeStyle;rounded=0;orthogonalLoop=1;jettySize=auto;html=1;exitX=1;exitY=0.5;exitDx=0;exitDy=0;entryX=0;entryY=0.5;entryDx=0;entryDy=0;" edge="1" parent="1" source="Iygiho4SqeM-Lswng-sU-100" target="Iygiho4SqeM-Lswng-sU-101">
          <mxGeometry relative="1" as="geometry" />
        </mxCell>
        <mxCell id="Iygiho4SqeM-Lswng-sU-100" value="事务1" style="ellipse;whiteSpace=wrap;html=1;aspect=fixed;fillColor=#dae8fc;strokeColor=#6c8ebf;" vertex="1" parent="1">
          <mxGeometry x="110" y="630" width="50" height="50" as="geometry" />
        </mxCell>
        <mxCell id="Iygiho4SqeM-Lswng-sU-113" style="edgeStyle=orthogonalEdgeStyle;rounded=0;orthogonalLoop=1;jettySize=auto;html=1;exitX=1;exitY=0.5;exitDx=0;exitDy=0;entryX=0;entryY=0.5;entryDx=0;entryDy=0;" edge="1" parent="1" source="Iygiho4SqeM-Lswng-sU-101" target="Iygiho4SqeM-Lswng-sU-112">
          <mxGeometry relative="1" as="geometry" />
        </mxCell>
        <mxCell id="Iygiho4SqeM-Lswng-sU-101" value="A=19" style="rounded=1;whiteSpace=wrap;html=1;fillColor=#d5e8d4;strokeColor=#82b366;" vertex="1" parent="1">
          <mxGeometry x="390" y="630" width="50" height="50" as="geometry" />
        </mxCell>
        <mxCell id="Iygiho4SqeM-Lswng-sU-110" value="" style="edgeStyle=orthogonalEdgeStyle;rounded=0;orthogonalLoop=1;jettySize=auto;html=1;" edge="1" parent="1" source="Iygiho4SqeM-Lswng-sU-106" target="Iygiho4SqeM-Lswng-sU-109">
          <mxGeometry relative="1" as="geometry" />
        </mxCell>
        <mxCell id="Iygiho4SqeM-Lswng-sU-106" value="A=20" style="rounded=1;whiteSpace=wrap;html=1;fillColor=#d5e8d4;strokeColor=#82b366;" vertex="1" parent="1">
          <mxGeometry x="580" y="550" width="50" height="50" as="geometry" />
        </mxCell>
        <mxCell id="Iygiho4SqeM-Lswng-sU-109" value="事务1" style="ellipse;whiteSpace=wrap;html=1;aspect=fixed;fillColor=#f8cecc;strokeColor=#b85450;" vertex="1" parent="1">
          <mxGeometry x="670" y="550" width="50" height="50" as="geometry" />
        </mxCell>
        <mxCell id="Iygiho4SqeM-Lswng-sU-112" value="事务2" style="ellipse;whiteSpace=wrap;html=1;aspect=fixed;fillColor=#dae8fc;strokeColor=#6c8ebf;" vertex="1" parent="1">
          <mxGeometry x="670" y="630" width="50" height="50" as="geometry" />
        </mxCell>
        <mxCell id="Iygiho4SqeM-Lswng-sU-114" value="&lt;font style=&quot;font-size: 24px;&quot;&gt;Dirty Read&lt;/font&gt;" style="text;html=1;align=center;verticalAlign=middle;whiteSpace=wrap;rounded=0;" vertex="1" parent="1">
          <mxGeometry x="345" y="510" width="155" height="30" as="geometry" />
        </mxCell>
        <mxCell id="Iygiho4SqeM-Lswng-sU-115" value="" style="rounded=1;whiteSpace=wrap;html=1;fillColor=#fff2cc;strokeColor=#d6b656;" vertex="1" parent="1">
          <mxGeometry x="102.5" y="770" width="640" height="200" as="geometry" />
        </mxCell>
        <mxCell id="Iygiho4SqeM-Lswng-sU-116" value="" style="edgeStyle=orthogonalEdgeStyle;rounded=0;orthogonalLoop=1;jettySize=auto;html=1;" edge="1" parent="1" source="Iygiho4SqeM-Lswng-sU-117" target="Iygiho4SqeM-Lswng-sU-119">
          <mxGeometry relative="1" as="geometry" />
        </mxCell>
        <mxCell id="Iygiho4SqeM-Lswng-sU-117" value="A=20" style="rounded=1;whiteSpace=wrap;html=1;fillColor=#d5e8d4;strokeColor=#82b366;" vertex="1" parent="1">
          <mxGeometry x="202.5" y="820" width="50" height="50" as="geometry" />
        </mxCell>
        <mxCell id="Iygiho4SqeM-Lswng-sU-118" value="" style="edgeStyle=orthogonalEdgeStyle;rounded=0;orthogonalLoop=1;jettySize=auto;html=1;" edge="1" parent="1" source="Iygiho4SqeM-Lswng-sU-119" target="Iygiho4SqeM-Lswng-sU-121">
          <mxGeometry relative="1" as="geometry" />
        </mxCell>
        <mxCell id="Iygiho4SqeM-Lswng-sU-119" value="A-1" style="rhombus;whiteSpace=wrap;html=1;fillColor=#ffe6cc;strokeColor=#d79b00;" vertex="1" parent="1">
          <mxGeometry x="282.5" y="825" width="80" height="40" as="geometry" />
        </mxCell>
        <mxCell id="Iygiho4SqeM-Lswng-sU-120" value="" style="edgeStyle=orthogonalEdgeStyle;rounded=0;orthogonalLoop=1;jettySize=auto;html=1;" edge="1" parent="1" source="Iygiho4SqeM-Lswng-sU-121" target="Iygiho4SqeM-Lswng-sU-125">
          <mxGeometry relative="1" as="geometry" />
        </mxCell>
        <mxCell id="Iygiho4SqeM-Lswng-sU-121" value="A=19" style="rounded=1;whiteSpace=wrap;html=1;fillColor=#d5e8d4;strokeColor=#82b366;" vertex="1" parent="1">
          <mxGeometry x="392.5" y="820" width="50" height="50" as="geometry" />
        </mxCell>
        <mxCell id="Iygiho4SqeM-Lswng-sU-122" style="edgeStyle=orthogonalEdgeStyle;rounded=0;orthogonalLoop=1;jettySize=auto;html=1;exitX=1;exitY=0.5;exitDx=0;exitDy=0;entryX=0;entryY=0.5;entryDx=0;entryDy=0;" edge="1" parent="1" source="Iygiho4SqeM-Lswng-sU-123" target="Iygiho4SqeM-Lswng-sU-117">
          <mxGeometry relative="1" as="geometry" />
        </mxCell>
        <mxCell id="Iygiho4SqeM-Lswng-sU-123" value="事务1" style="ellipse;whiteSpace=wrap;html=1;aspect=fixed;fillColor=#f8cecc;strokeColor=#b85450;" vertex="1" parent="1">
          <mxGeometry x="112.5" y="820" width="50" height="50" as="geometry" />
        </mxCell>
        <mxCell id="Iygiho4SqeM-Lswng-sU-124" value="" style="edgeStyle=orthogonalEdgeStyle;rounded=0;orthogonalLoop=1;jettySize=auto;html=1;" edge="1" parent="1" source="Iygiho4SqeM-Lswng-sU-125" target="Iygiho4SqeM-Lswng-sU-131">
          <mxGeometry relative="1" as="geometry" />
        </mxCell>
        <mxCell id="Iygiho4SqeM-Lswng-sU-125" value="commit" style="rhombus;whiteSpace=wrap;html=1;fillColor=#ffe6cc;strokeColor=#d79b00;" vertex="1" parent="1">
          <mxGeometry x="472.5" y="825" width="80" height="40" as="geometry" />
        </mxCell>
        <mxCell id="Iygiho4SqeM-Lswng-sU-175" value="" style="edgeStyle=orthogonalEdgeStyle;rounded=0;orthogonalLoop=1;jettySize=auto;html=1;" edge="1" parent="1" source="Iygiho4SqeM-Lswng-sU-127" target="Iygiho4SqeM-Lswng-sU-174">
          <mxGeometry relative="1" as="geometry" />
        </mxCell>
        <mxCell id="Iygiho4SqeM-Lswng-sU-127" value="事务1" style="ellipse;whiteSpace=wrap;html=1;aspect=fixed;fillColor=#dae8fc;strokeColor=#6c8ebf;" vertex="1" parent="1">
          <mxGeometry x="112.5" y="900" width="50" height="50" as="geometry" />
        </mxCell>
        <mxCell id="Iygiho4SqeM-Lswng-sU-130" value="" style="edgeStyle=orthogonalEdgeStyle;rounded=0;orthogonalLoop=1;jettySize=auto;html=1;" edge="1" parent="1" source="Iygiho4SqeM-Lswng-sU-131" target="Iygiho4SqeM-Lswng-sU-132">
          <mxGeometry relative="1" as="geometry" />
        </mxCell>
        <mxCell id="Iygiho4SqeM-Lswng-sU-131" value="A=19" style="rounded=1;whiteSpace=wrap;html=1;fillColor=#d5e8d4;strokeColor=#82b366;" vertex="1" parent="1">
          <mxGeometry x="582.5" y="820" width="50" height="50" as="geometry" />
        </mxCell>
        <mxCell id="Iygiho4SqeM-Lswng-sU-132" value="事务1" style="ellipse;whiteSpace=wrap;html=1;aspect=fixed;fillColor=#f8cecc;strokeColor=#b85450;" vertex="1" parent="1">
          <mxGeometry x="672.5" y="820" width="50" height="50" as="geometry" />
        </mxCell>
        <mxCell id="Iygiho4SqeM-Lswng-sU-133" value="事务2" style="ellipse;whiteSpace=wrap;html=1;aspect=fixed;fillColor=#dae8fc;strokeColor=#6c8ebf;" vertex="1" parent="1">
          <mxGeometry x="672.5" y="900" width="50" height="50" as="geometry" />
        </mxCell>
        <mxCell id="Iygiho4SqeM-Lswng-sU-134" value="&lt;font style=&quot;font-size: 24px;&quot;&gt;Unrepeatable Read&lt;/font&gt;" style="text;html=1;align=center;verticalAlign=middle;whiteSpace=wrap;rounded=0;" vertex="1" parent="1">
          <mxGeometry x="311.25" y="780" width="222.5" height="30" as="geometry" />
        </mxCell>
        <mxCell id="Iygiho4SqeM-Lswng-sU-137" value="" style="edgeStyle=orthogonalEdgeStyle;rounded=0;orthogonalLoop=1;jettySize=auto;html=1;" edge="1" parent="1" source="Iygiho4SqeM-Lswng-sU-135" target="Iygiho4SqeM-Lswng-sU-133">
          <mxGeometry relative="1" as="geometry" />
        </mxCell>
        <mxCell id="Iygiho4SqeM-Lswng-sU-135" value="A=19" style="rounded=1;whiteSpace=wrap;html=1;fillColor=#d5e8d4;strokeColor=#82b366;" vertex="1" parent="1">
          <mxGeometry x="582.5" y="900" width="50" height="50" as="geometry" />
        </mxCell>
        <mxCell id="Iygiho4SqeM-Lswng-sU-139" value="" style="rounded=1;whiteSpace=wrap;html=1;fillColor=#fff2cc;strokeColor=#d6b656;" vertex="1" parent="1">
          <mxGeometry x="102.5" y="1030" width="640" height="200" as="geometry" />
        </mxCell>
        <mxCell id="Iygiho4SqeM-Lswng-sU-140" value="" style="edgeStyle=orthogonalEdgeStyle;rounded=0;orthogonalLoop=1;jettySize=auto;html=1;" edge="1" parent="1" source="Iygiho4SqeM-Lswng-sU-141" target="Iygiho4SqeM-Lswng-sU-143">
          <mxGeometry relative="1" as="geometry" />
        </mxCell>
        <mxCell id="Iygiho4SqeM-Lswng-sU-141" value="num={1,2}" style="rounded=1;whiteSpace=wrap;html=1;fillColor=#d5e8d4;strokeColor=#82b366;" vertex="1" parent="1">
          <mxGeometry x="195" y="1080" width="50" height="50" as="geometry" />
        </mxCell>
        <mxCell id="Iygiho4SqeM-Lswng-sU-183" style="edgeStyle=orthogonalEdgeStyle;rounded=0;orthogonalLoop=1;jettySize=auto;html=1;exitX=1;exitY=0.5;exitDx=0;exitDy=0;entryX=0;entryY=0.5;entryDx=0;entryDy=0;" edge="1" parent="1" source="Iygiho4SqeM-Lswng-sU-143" target="Iygiho4SqeM-Lswng-sU-145">
          <mxGeometry relative="1" as="geometry" />
        </mxCell>
        <mxCell id="Iygiho4SqeM-Lswng-sU-143" value="insert 3" style="rhombus;whiteSpace=wrap;html=1;fillColor=#ffe6cc;strokeColor=#d79b00;" vertex="1" parent="1">
          <mxGeometry x="277" y="1085" width="80" height="40" as="geometry" />
        </mxCell>
        <mxCell id="Iygiho4SqeM-Lswng-sU-185" style="edgeStyle=orthogonalEdgeStyle;rounded=0;orthogonalLoop=1;jettySize=auto;html=1;exitX=1;exitY=0.5;exitDx=0;exitDy=0;entryX=0;entryY=0.5;entryDx=0;entryDy=0;" edge="1" parent="1" source="Iygiho4SqeM-Lswng-sU-145" target="Iygiho4SqeM-Lswng-sU-178">
          <mxGeometry relative="1" as="geometry" />
        </mxCell>
        <mxCell id="Iygiho4SqeM-Lswng-sU-145" value="num={1,2,3}" style="rounded=1;whiteSpace=wrap;html=1;fillColor=#d5e8d4;strokeColor=#82b366;" vertex="1" parent="1">
          <mxGeometry x="392.5" y="1080" width="50" height="50" as="geometry" />
        </mxCell>
        <mxCell id="Iygiho4SqeM-Lswng-sU-146" style="edgeStyle=orthogonalEdgeStyle;rounded=0;orthogonalLoop=1;jettySize=auto;html=1;exitX=1;exitY=0.5;exitDx=0;exitDy=0;entryX=0;entryY=0.5;entryDx=0;entryDy=0;" edge="1" parent="1" source="Iygiho4SqeM-Lswng-sU-147" target="Iygiho4SqeM-Lswng-sU-141">
          <mxGeometry relative="1" as="geometry" />
        </mxCell>
        <mxCell id="Iygiho4SqeM-Lswng-sU-147" value="事务1" style="ellipse;whiteSpace=wrap;html=1;aspect=fixed;fillColor=#f8cecc;strokeColor=#b85450;" vertex="1" parent="1">
          <mxGeometry x="112.5" y="1080" width="50" height="50" as="geometry" />
        </mxCell>
        <mxCell id="Iygiho4SqeM-Lswng-sU-164" value="" style="edgeStyle=orthogonalEdgeStyle;rounded=0;orthogonalLoop=1;jettySize=auto;html=1;" edge="1" parent="1" source="Iygiho4SqeM-Lswng-sU-151" target="Iygiho4SqeM-Lswng-sU-163">
          <mxGeometry relative="1" as="geometry" />
        </mxCell>
        <mxCell id="Iygiho4SqeM-Lswng-sU-151" value="事务1" style="ellipse;whiteSpace=wrap;html=1;aspect=fixed;fillColor=#dae8fc;strokeColor=#6c8ebf;" vertex="1" parent="1">
          <mxGeometry x="112.5" y="1160" width="50" height="50" as="geometry" />
        </mxCell>
        <mxCell id="Iygiho4SqeM-Lswng-sU-156" value="事务1" style="ellipse;whiteSpace=wrap;html=1;aspect=fixed;fillColor=#f8cecc;strokeColor=#b85450;" vertex="1" parent="1">
          <mxGeometry x="672.5" y="1080" width="50" height="50" as="geometry" />
        </mxCell>
        <mxCell id="Iygiho4SqeM-Lswng-sU-157" value="事务2" style="ellipse;whiteSpace=wrap;html=1;aspect=fixed;fillColor=#dae8fc;strokeColor=#6c8ebf;" vertex="1" parent="1">
          <mxGeometry x="672.5" y="1160" width="50" height="50" as="geometry" />
        </mxCell>
        <mxCell id="Iygiho4SqeM-Lswng-sU-158" value="&lt;font style=&quot;font-size: 24px;&quot;&gt;Phantom Read&lt;/font&gt;" style="text;html=1;align=center;verticalAlign=middle;whiteSpace=wrap;rounded=0;" vertex="1" parent="1">
          <mxGeometry x="303.75" y="1040" width="222.5" height="30" as="geometry" />
        </mxCell>
        <mxCell id="Iygiho4SqeM-Lswng-sU-159" value="" style="edgeStyle=orthogonalEdgeStyle;rounded=0;orthogonalLoop=1;jettySize=auto;html=1;" edge="1" parent="1" source="Iygiho4SqeM-Lswng-sU-160" target="Iygiho4SqeM-Lswng-sU-157">
          <mxGeometry relative="1" as="geometry" />
        </mxCell>
        <mxCell id="Iygiho4SqeM-Lswng-sU-160" value="count=3" style="rounded=1;whiteSpace=wrap;html=1;fillColor=#d5e8d4;strokeColor=#82b366;" vertex="1" parent="1">
          <mxGeometry x="582.5" y="1160" width="50" height="50" as="geometry" />
        </mxCell>
        <mxCell id="Iygiho4SqeM-Lswng-sU-169" value="" style="edgeStyle=orthogonalEdgeStyle;rounded=0;orthogonalLoop=1;jettySize=auto;html=1;" edge="1" parent="1" source="Iygiho4SqeM-Lswng-sU-163" target="Iygiho4SqeM-Lswng-sU-168">
          <mxGeometry relative="1" as="geometry" />
        </mxCell>
        <mxCell id="Iygiho4SqeM-Lswng-sU-163" value="count(*)" style="rhombus;whiteSpace=wrap;html=1;fillColor=#ffe6cc;strokeColor=#d79b00;" vertex="1" parent="1">
          <mxGeometry x="215" y="1165" width="80" height="40" as="geometry" />
        </mxCell>
        <mxCell id="Iygiho4SqeM-Lswng-sU-171" value="" style="edgeStyle=orthogonalEdgeStyle;rounded=0;orthogonalLoop=1;jettySize=auto;html=1;" edge="1" parent="1" source="Iygiho4SqeM-Lswng-sU-168" target="Iygiho4SqeM-Lswng-sU-170">
          <mxGeometry relative="1" as="geometry" />
        </mxCell>
        <mxCell id="Iygiho4SqeM-Lswng-sU-168" value="count=2" style="rounded=1;whiteSpace=wrap;html=1;fillColor=#d5e8d4;strokeColor=#82b366;" vertex="1" parent="1">
          <mxGeometry x="349" y="1160" width="50" height="50" as="geometry" />
        </mxCell>
        <mxCell id="Iygiho4SqeM-Lswng-sU-173" value="" style="edgeStyle=orthogonalEdgeStyle;rounded=0;orthogonalLoop=1;jettySize=auto;html=1;" edge="1" parent="1" source="Iygiho4SqeM-Lswng-sU-170" target="Iygiho4SqeM-Lswng-sU-160">
          <mxGeometry relative="1" as="geometry" />
        </mxCell>
        <mxCell id="Iygiho4SqeM-Lswng-sU-170" value="count(*)" style="rhombus;whiteSpace=wrap;html=1;fillColor=#ffe6cc;strokeColor=#d79b00;" vertex="1" parent="1">
          <mxGeometry x="472.5" y="1165" width="80" height="40" as="geometry" />
        </mxCell>
        <mxCell id="Iygiho4SqeM-Lswng-sU-177" style="edgeStyle=orthogonalEdgeStyle;rounded=0;orthogonalLoop=1;jettySize=auto;html=1;exitX=1;exitY=0.5;exitDx=0;exitDy=0;entryX=0;entryY=0.5;entryDx=0;entryDy=0;" edge="1" parent="1" source="Iygiho4SqeM-Lswng-sU-174" target="Iygiho4SqeM-Lswng-sU-135">
          <mxGeometry relative="1" as="geometry" />
        </mxCell>
        <mxCell id="Iygiho4SqeM-Lswng-sU-174" value="A=20" style="rounded=1;whiteSpace=wrap;html=1;fillColor=#d5e8d4;strokeColor=#82b366;" vertex="1" parent="1">
          <mxGeometry x="202.5" y="900" width="50" height="50" as="geometry" />
        </mxCell>
        <mxCell id="Iygiho4SqeM-Lswng-sU-188" value="" style="edgeStyle=orthogonalEdgeStyle;rounded=0;orthogonalLoop=1;jettySize=auto;html=1;" edge="1" parent="1" source="Iygiho4SqeM-Lswng-sU-178" target="Iygiho4SqeM-Lswng-sU-186">
          <mxGeometry relative="1" as="geometry" />
        </mxCell>
        <mxCell id="Iygiho4SqeM-Lswng-sU-178" value="commit" style="rhombus;whiteSpace=wrap;html=1;fillColor=#ffe6cc;strokeColor=#d79b00;" vertex="1" parent="1">
          <mxGeometry x="472.5" y="1085" width="80" height="40" as="geometry" />
        </mxCell>
        <mxCell id="Iygiho4SqeM-Lswng-sU-189" value="" style="edgeStyle=orthogonalEdgeStyle;rounded=0;orthogonalLoop=1;jettySize=auto;html=1;" edge="1" parent="1" source="Iygiho4SqeM-Lswng-sU-186" target="Iygiho4SqeM-Lswng-sU-156">
          <mxGeometry relative="1" as="geometry" />
        </mxCell>
        <mxCell id="Iygiho4SqeM-Lswng-sU-186" value="num={1,2,3}" style="rounded=1;whiteSpace=wrap;html=1;fillColor=#d5e8d4;strokeColor=#82b366;" vertex="1" parent="1">
          <mxGeometry x="580" y="1080" width="50" height="50" as="geometry" />
        </mxCell>
        <mxCell id="Iygiho4SqeM-Lswng-sU-193" value="" style="shape=table;startSize=0;container=1;collapsible=0;childLayout=tableLayout;fontSize=16;fillColor=#f8cecc;strokeColor=#b85450;" vertex="1" parent="1">
          <mxGeometry x="840" y="1390" width="169" height="40" as="geometry" />
        </mxCell>
        <mxCell id="Iygiho4SqeM-Lswng-sU-198" value="" style="shape=tableRow;horizontal=0;startSize=0;swimlaneHead=0;swimlaneBody=0;strokeColor=inherit;top=0;left=0;bottom=0;right=0;collapsible=0;dropTarget=0;fillColor=none;points=[[0,0.5],[1,0.5]];portConstraint=eastwest;fontSize=16;" vertex="1" parent="Iygiho4SqeM-Lswng-sU-193">
          <mxGeometry width="169" height="40" as="geometry" />
        </mxCell>
        <mxCell id="Iygiho4SqeM-Lswng-sU-199" value="(3,Dasi)" style="shape=partialRectangle;html=1;whiteSpace=wrap;connectable=0;strokeColor=inherit;overflow=hidden;fillColor=none;top=0;left=0;bottom=0;right=0;pointerEvents=1;fontSize=16;" vertex="1" parent="Iygiho4SqeM-Lswng-sU-198">
          <mxGeometry width="84" height="40" as="geometry">
            <mxRectangle width="84" height="40" as="alternateBounds" />
          </mxGeometry>
        </mxCell>
        <mxCell id="Iygiho4SqeM-Lswng-sU-200" value="(5,Even)" style="shape=partialRectangle;html=1;whiteSpace=wrap;connectable=0;strokeColor=inherit;overflow=hidden;fillColor=none;top=0;left=0;bottom=0;right=0;pointerEvents=1;fontSize=16;" vertex="1" parent="Iygiho4SqeM-Lswng-sU-198">
          <mxGeometry x="84" width="85" height="40" as="geometry">
            <mxRectangle width="85" height="40" as="alternateBounds" />
          </mxGeometry>
        </mxCell>
        <mxCell id="Iygiho4SqeM-Lswng-sU-208" value="" style="shape=table;startSize=0;container=1;collapsible=0;childLayout=tableLayout;fontSize=16;fillColor=#f8cecc;strokeColor=#b85450;" vertex="1" parent="1">
          <mxGeometry x="478" y="1500" width="254" height="40" as="geometry" />
        </mxCell>
        <mxCell id="Iygiho4SqeM-Lswng-sU-209" value="" style="shape=tableRow;horizontal=0;startSize=0;swimlaneHead=0;swimlaneBody=0;strokeColor=inherit;top=0;left=0;bottom=0;right=0;collapsible=0;dropTarget=0;fillColor=none;points=[[0,0.5],[1,0.5]];portConstraint=eastwest;fontSize=16;" vertex="1" parent="Iygiho4SqeM-Lswng-sU-208">
          <mxGeometry width="254" height="40" as="geometry" />
        </mxCell>
        <mxCell id="Iygiho4SqeM-Lswng-sU-236" value="(1,Jason)" style="shape=partialRectangle;html=1;whiteSpace=wrap;connectable=0;strokeColor=inherit;overflow=hidden;fillColor=none;top=0;left=0;bottom=0;right=0;pointerEvents=1;fontSize=16;" vertex="1" parent="Iygiho4SqeM-Lswng-sU-209">
          <mxGeometry width="84" height="40" as="geometry">
            <mxRectangle width="84" height="40" as="alternateBounds" />
          </mxGeometry>
        </mxCell>
        <mxCell id="Iygiho4SqeM-Lswng-sU-211" value="(1,Mark)" style="shape=partialRectangle;html=1;whiteSpace=wrap;connectable=0;strokeColor=inherit;overflow=hidden;fillColor=none;top=0;left=0;bottom=0;right=0;pointerEvents=1;fontSize=16;" vertex="1" parent="Iygiho4SqeM-Lswng-sU-209">
          <mxGeometry x="84" width="85" height="40" as="geometry">
            <mxRectangle width="85" height="40" as="alternateBounds" />
          </mxGeometry>
        </mxCell>
        <mxCell id="Iygiho4SqeM-Lswng-sU-213" value="(1,Micky)" style="shape=partialRectangle;html=1;whiteSpace=wrap;connectable=0;strokeColor=inherit;overflow=hidden;fillColor=none;top=0;left=0;bottom=0;right=0;pointerEvents=1;fontSize=16;" vertex="1" parent="Iygiho4SqeM-Lswng-sU-209">
          <mxGeometry x="169" width="85" height="40" as="geometry">
            <mxRectangle width="85" height="40" as="alternateBounds" />
          </mxGeometry>
        </mxCell>
        <mxCell id="Iygiho4SqeM-Lswng-sU-215" value="" style="shape=table;startSize=0;container=1;collapsible=0;childLayout=tableLayout;fontSize=16;fillColor=#f8cecc;strokeColor=#b85450;" vertex="1" parent="1">
          <mxGeometry x="789.5" y="1500" width="254" height="40" as="geometry" />
        </mxCell>
        <mxCell id="Iygiho4SqeM-Lswng-sU-216" value="" style="shape=tableRow;horizontal=0;startSize=0;swimlaneHead=0;swimlaneBody=0;strokeColor=inherit;top=0;left=0;bottom=0;right=0;collapsible=0;dropTarget=0;fillColor=none;points=[[0,0.5],[1,0.5]];portConstraint=eastwest;fontSize=16;" vertex="1" parent="Iygiho4SqeM-Lswng-sU-215">
          <mxGeometry width="254" height="40" as="geometry" />
        </mxCell>
        <mxCell id="Iygiho4SqeM-Lswng-sU-217" value="(3,Dasi)" style="shape=partialRectangle;html=1;whiteSpace=wrap;connectable=0;strokeColor=inherit;overflow=hidden;fillColor=none;top=0;left=0;bottom=0;right=0;pointerEvents=1;fontSize=16;" vertex="1" parent="Iygiho4SqeM-Lswng-sU-216">
          <mxGeometry width="84" height="40" as="geometry">
            <mxRectangle width="84" height="40" as="alternateBounds" />
          </mxGeometry>
        </mxCell>
        <mxCell id="Iygiho4SqeM-Lswng-sU-218" value="(3, David)" style="shape=partialRectangle;html=1;whiteSpace=wrap;connectable=0;strokeColor=inherit;overflow=hidden;fillColor=none;top=0;left=0;bottom=0;right=0;pointerEvents=1;fontSize=16;" vertex="1" parent="Iygiho4SqeM-Lswng-sU-216">
          <mxGeometry x="84" width="85" height="40" as="geometry">
            <mxRectangle width="85" height="40" as="alternateBounds" />
          </mxGeometry>
        </mxCell>
        <mxCell id="Iygiho4SqeM-Lswng-sU-220" value="(4, Alice)" style="shape=partialRectangle;html=1;whiteSpace=wrap;connectable=0;strokeColor=inherit;overflow=hidden;fillColor=none;top=0;left=0;bottom=0;right=0;pointerEvents=1;fontSize=16;" vertex="1" parent="Iygiho4SqeM-Lswng-sU-216">
          <mxGeometry x="169" width="85" height="40" as="geometry">
            <mxRectangle width="85" height="40" as="alternateBounds" />
          </mxGeometry>
        </mxCell>
        <mxCell id="Iygiho4SqeM-Lswng-sU-224" style="edgeStyle=orthogonalEdgeStyle;rounded=0;orthogonalLoop=1;jettySize=auto;html=1;exitX=1;exitY=0.5;exitDx=0;exitDy=0;entryX=0;entryY=0.5;entryDx=0;entryDy=0;" edge="1" parent="1" source="Iygiho4SqeM-Lswng-sU-209" target="Iygiho4SqeM-Lswng-sU-216">
          <mxGeometry relative="1" as="geometry" />
        </mxCell>
        <mxCell id="Iygiho4SqeM-Lswng-sU-235" style="edgeStyle=orthogonalEdgeStyle;rounded=0;orthogonalLoop=1;jettySize=auto;html=1;exitX=1;exitY=0.5;exitDx=0;exitDy=0;entryX=0;entryY=0.5;entryDx=0;entryDy=0;" edge="1" parent="1" source="Iygiho4SqeM-Lswng-sU-216">
          <mxGeometry relative="1" as="geometry">
            <mxPoint x="1090" y="1520" as="targetPoint" />
          </mxGeometry>
        </mxCell>
        <mxCell id="Iygiho4SqeM-Lswng-sU-238" value="" style="shape=table;startSize=0;container=1;collapsible=0;childLayout=tableLayout;fontSize=16;fillColor=#f8cecc;strokeColor=#b85450;" vertex="1" parent="1">
          <mxGeometry x="1090" y="1500" width="254" height="40" as="geometry" />
        </mxCell>
        <mxCell id="Iygiho4SqeM-Lswng-sU-239" value="" style="shape=tableRow;horizontal=0;startSize=0;swimlaneHead=0;swimlaneBody=0;strokeColor=inherit;top=0;left=0;bottom=0;right=0;collapsible=0;dropTarget=0;fillColor=none;points=[[0,0.5],[1,0.5]];portConstraint=eastwest;fontSize=16;" vertex="1" parent="Iygiho4SqeM-Lswng-sU-238">
          <mxGeometry width="254" height="40" as="geometry" />
        </mxCell>
        <mxCell id="Iygiho4SqeM-Lswng-sU-240" value="(5,Even)" style="shape=partialRectangle;html=1;whiteSpace=wrap;connectable=0;strokeColor=inherit;overflow=hidden;fillColor=none;top=0;left=0;bottom=0;right=0;pointerEvents=1;fontSize=16;" vertex="1" parent="Iygiho4SqeM-Lswng-sU-239">
          <mxGeometry width="84" height="40" as="geometry">
            <mxRectangle width="84" height="40" as="alternateBounds" />
          </mxGeometry>
        </mxCell>
        <mxCell id="Iygiho4SqeM-Lswng-sU-241" value="(6, Ivy)" style="shape=partialRectangle;html=1;whiteSpace=wrap;connectable=0;strokeColor=inherit;overflow=hidden;fillColor=none;top=0;left=0;bottom=0;right=0;pointerEvents=1;fontSize=16;" vertex="1" parent="Iygiho4SqeM-Lswng-sU-239">
          <mxGeometry x="84" width="85" height="40" as="geometry">
            <mxRectangle width="85" height="40" as="alternateBounds" />
          </mxGeometry>
        </mxCell>
        <mxCell id="Iygiho4SqeM-Lswng-sU-242" value="(7,Bob)" style="shape=partialRectangle;html=1;whiteSpace=wrap;connectable=0;strokeColor=inherit;overflow=hidden;fillColor=none;top=0;left=0;bottom=0;right=0;pointerEvents=1;fontSize=16;" vertex="1" parent="Iygiho4SqeM-Lswng-sU-239">
          <mxGeometry x="169" width="85" height="40" as="geometry">
            <mxRectangle width="85" height="40" as="alternateBounds" />
          </mxGeometry>
        </mxCell>
        <mxCell id="Iygiho4SqeM-Lswng-sU-245" value="" style="endArrow=classic;html=1;rounded=0;exitX=0;exitY=0.5;exitDx=0;exitDy=0;entryX=0.164;entryY=0.047;entryDx=0;entryDy=0;entryPerimeter=0;" edge="1" parent="1" source="Iygiho4SqeM-Lswng-sU-198" target="Iygiho4SqeM-Lswng-sU-209">
          <mxGeometry width="50" height="50" relative="1" as="geometry">
            <mxPoint x="760" y="1600" as="sourcePoint" />
            <mxPoint x="810" y="1550" as="targetPoint" />
          </mxGeometry>
        </mxCell>
        <mxCell id="Iygiho4SqeM-Lswng-sU-246" value="" style="endArrow=classic;html=1;rounded=0;entryX=0.168;entryY=0.074;entryDx=0;entryDy=0;entryPerimeter=0;" edge="1" parent="1" target="Iygiho4SqeM-Lswng-sU-216">
          <mxGeometry width="50" height="50" relative="1" as="geometry">
            <mxPoint x="926" y="1430" as="sourcePoint" />
            <mxPoint x="750" y="1516" as="targetPoint" />
          </mxGeometry>
        </mxCell>
        <mxCell id="Iygiho4SqeM-Lswng-sU-247" value="" style="endArrow=classic;html=1;rounded=0;exitX=1;exitY=0.5;exitDx=0;exitDy=0;entryX=0.166;entryY=0.021;entryDx=0;entryDy=0;entryPerimeter=0;" edge="1" parent="1" source="Iygiho4SqeM-Lswng-sU-198" target="Iygiho4SqeM-Lswng-sU-239">
          <mxGeometry width="50" height="50" relative="1" as="geometry">
            <mxPoint x="1004" y="1460" as="sourcePoint" />
            <mxPoint x="910" y="1537" as="targetPoint" />
          </mxGeometry>
        </mxCell>
        <mxCell id="Iygiho4SqeM-Lswng-sU-249" value="&lt;font style=&quot;font-size: 36px;&quot;&gt;B+ Tree&lt;/font&gt;" style="text;html=1;align=center;verticalAlign=middle;whiteSpace=wrap;rounded=0;" vertex="1" parent="1">
          <mxGeometry x="478" y="1380" width="220" height="60" as="geometry" />
        </mxCell>
        <mxCell id="Iygiho4SqeM-Lswng-sU-256" style="edgeStyle=orthogonalEdgeStyle;rounded=0;orthogonalLoop=1;jettySize=auto;html=1;exitX=0.5;exitY=1;exitDx=0;exitDy=0;entryX=0.5;entryY=0;entryDx=0;entryDy=0;" edge="1" parent="1" source="Iygiho4SqeM-Lswng-sU-250" target="Iygiho4SqeM-Lswng-sU-252">
          <mxGeometry relative="1" as="geometry" />
        </mxCell>
        <mxCell id="Iygiho4SqeM-Lswng-sU-250" value="" style="shape=actor;whiteSpace=wrap;html=1;fillColor=#dae8fc;strokeColor=#6c8ebf;" vertex="1" parent="1">
          <mxGeometry x="884" y="1675" width="57" height="98" as="geometry" />
        </mxCell>
        <mxCell id="Iygiho4SqeM-Lswng-sU-252" value="&lt;font style=&quot;font-size: 18px;&quot;&gt;负载均衡代理&lt;/font&gt;" style="ellipse;whiteSpace=wrap;html=1;fillColor=#ffe6cc;strokeColor=#d79b00;" vertex="1" parent="1">
          <mxGeometry x="833.75" y="1827" width="157.5" height="87" as="geometry" />
        </mxCell>
        <mxCell id="Iygiho4SqeM-Lswng-sU-253" value="&lt;font style=&quot;font-size: 24px;&quot;&gt;Master&lt;/font&gt;" style="shape=cylinder3;whiteSpace=wrap;html=1;boundedLbl=1;backgroundOutline=1;size=15;fillColor=#f8cecc;strokeColor=#b85450;" vertex="1" parent="1">
          <mxGeometry x="875" y="1968" width="75.13" height="107" as="geometry" />
        </mxCell>
        <mxCell id="Iygiho4SqeM-Lswng-sU-254" value="&lt;font style=&quot;font-size: 24px;&quot;&gt;Slave&lt;/font&gt;" style="shape=cylinder3;whiteSpace=wrap;html=1;boundedLbl=1;backgroundOutline=1;size=15;fillColor=#d5e8d4;strokeColor=#82b366;" vertex="1" parent="1">
          <mxGeometry x="1065" y="1968" width="75.25" height="107" as="geometry" />
        </mxCell>
        <mxCell id="Iygiho4SqeM-Lswng-sU-255" value="&lt;font style=&quot;font-size: 24px;&quot;&gt;Slave&lt;/font&gt;" style="shape=cylinder3;whiteSpace=wrap;html=1;boundedLbl=1;backgroundOutline=1;size=15;fillColor=#d5e8d4;strokeColor=#82b366;" vertex="1" parent="1">
          <mxGeometry x="685" y="1968" width="75.25" height="107" as="geometry" />
        </mxCell>
        <mxCell id="Iygiho4SqeM-Lswng-sU-257" style="edgeStyle=orthogonalEdgeStyle;rounded=0;orthogonalLoop=1;jettySize=auto;html=1;exitX=0;exitY=1;exitDx=0;exitDy=0;entryX=0.5;entryY=0;entryDx=0;entryDy=0;entryPerimeter=0;" edge="1" parent="1" source="Iygiho4SqeM-Lswng-sU-252" target="Iygiho4SqeM-Lswng-sU-255">
          <mxGeometry relative="1" as="geometry" />
        </mxCell>
        <mxCell id="Iygiho4SqeM-Lswng-sU-258" style="edgeStyle=orthogonalEdgeStyle;rounded=0;orthogonalLoop=1;jettySize=auto;html=1;exitX=0.5;exitY=1;exitDx=0;exitDy=0;entryX=0.5;entryY=0;entryDx=0;entryDy=0;entryPerimeter=0;" edge="1" parent="1" source="Iygiho4SqeM-Lswng-sU-252" target="Iygiho4SqeM-Lswng-sU-253">
          <mxGeometry relative="1" as="geometry" />
        </mxCell>
        <mxCell id="Iygiho4SqeM-Lswng-sU-259" style="edgeStyle=orthogonalEdgeStyle;rounded=0;orthogonalLoop=1;jettySize=auto;html=1;exitX=1;exitY=1;exitDx=0;exitDy=0;entryX=0.5;entryY=0;entryDx=0;entryDy=0;entryPerimeter=0;" edge="1" parent="1" source="Iygiho4SqeM-Lswng-sU-252" target="Iygiho4SqeM-Lswng-sU-254">
          <mxGeometry relative="1" as="geometry" />
        </mxCell>
        <mxCell id="Iygiho4SqeM-Lswng-sU-262" value="&lt;span style=&quot;font-size: 24px;&quot;&gt;Read&lt;/span&gt;" style="text;html=1;align=center;verticalAlign=middle;whiteSpace=wrap;rounded=0;" vertex="1" parent="1">
          <mxGeometry x="732" y="1870" width="60" height="30" as="geometry" />
        </mxCell>
        <mxCell id="Iygiho4SqeM-Lswng-sU-265" value="&lt;span style=&quot;font-size: 24px;&quot;&gt;Read&lt;/span&gt;" style="text;html=1;align=center;verticalAlign=middle;whiteSpace=wrap;rounded=0;" vertex="1" parent="1">
          <mxGeometry x="1030" y="1870" width="60" height="30" as="geometry" />
        </mxCell>
        <mxCell id="Iygiho4SqeM-Lswng-sU-266" value="&lt;span style=&quot;font-size: 24px;&quot;&gt;Write&lt;/span&gt;" style="text;html=1;align=center;verticalAlign=middle;whiteSpace=wrap;rounded=0;" vertex="1" parent="1">
          <mxGeometry x="920" y="1930" width="60" height="30" as="geometry" />
        </mxCell>
      </root>
    </mxGraphModel>
  </diagram>
</mxfile>
